<svg width="22" height="18" viewBox="0 0 22 18" fill="none" xmlns="http://www.w3.org/2000/svg">
<g clip-path="url(#clip0_268_503)">
<path d="M18.1746 1.8085C16.8547 1.17754 15.4394 0.712676 13.9596 0.446429C13.9326 0.441291 13.9057 0.454132 13.8918 0.479816C13.7098 0.817117 13.5081 1.25716 13.367 1.60302C11.7753 1.35476 10.1918 1.35476 8.63279 1.60302C8.49157 1.24947 8.28262 0.817117 8.09978 0.479816C8.08589 0.454989 8.05897 0.442148 8.03202 0.446429C6.55301 0.711826 5.13766 1.17669 3.81699 1.8085C3.80556 1.81364 3.79576 1.82221 3.78925 1.83333C1.10464 6.012 0.369209 10.088 0.729985 14.1134C0.731617 14.1331 0.742228 14.1519 0.756921 14.1639C2.52815 15.5191 4.24389 16.3418 5.92777 16.8872C5.95472 16.8957 5.98328 16.8855 6.00043 16.8623C6.39875 16.2956 6.75382 15.6981 7.05825 15.0697C7.07622 15.0329 7.05907 14.9892 7.02235 14.9746C6.45915 14.752 5.92287 14.4807 5.40701 14.1725C5.36621 14.1476 5.36294 14.0868 5.40048 14.0577C5.50903 13.973 5.61762 13.8848 5.72128 13.7958C5.74003 13.7795 5.76616 13.7761 5.78821 13.7863C9.17721 15.3984 12.8462 15.3984 16.1952 13.7863C16.2172 13.7752 16.2434 13.7786 16.263 13.7949C16.3666 13.8839 16.4752 13.973 16.5846 14.0577C16.6221 14.0868 16.6197 14.1476 16.5788 14.1725C16.063 14.4866 15.5267 14.752 14.9627 14.9738C14.926 14.9883 14.9096 15.0329 14.9276 15.0697C15.2386 15.6972 15.5936 16.2947 15.9846 16.8615C16.001 16.8855 16.0303 16.8957 16.0573 16.8872C17.7493 16.3418 19.465 15.5191 21.2363 14.1639C21.2518 14.1519 21.2616 14.1339 21.2632 14.1142C21.695 9.46041 20.54 5.41787 18.2015 1.83418C18.1958 1.82221 18.186 1.81364 18.1746 1.8085ZM7.56435 11.6623C6.54402 11.6623 5.70331 10.6864 5.70331 9.48782C5.70331 8.28925 6.52772 7.3133 7.56435 7.3133C8.60911 7.3133 9.44168 8.29782 9.42535 9.48782C9.42535 10.6864 8.60094 11.6623 7.56435 11.6623ZM14.4452 11.6623C13.4249 11.6623 12.5842 10.6864 12.5842 9.48782C12.5842 8.28925 13.4086 7.3133 14.4452 7.3133C15.49 7.3133 16.3225 8.29782 16.3062 9.48782C16.3062 10.6864 15.49 11.6623 14.4452 11.6623Z" fill="white"/>
</g>
<defs>
<clipPath id="clip0_268_503">
<rect width="20.708" height="16.713" fill="white" transform="translate(0.644531 0.320312)"/>
</clipPath>
</defs>
</svg>
