<svg width="161" height="157" viewBox="0 0 161 157" fill="none" xmlns="http://www.w3.org/2000/svg">
<path d="M32.4442 58.499C32.1462 59.3871 31.634 60.0155 30.9075 60.3844C30.1899 60.7561 29.3249 60.7722 28.3125 60.4325L24.0098 58.9886L24.4121 57.7897L28.5416 59.1755C29.2698 59.4198 29.886 59.424 30.39 59.1881C30.903 58.9551 31.2652 58.5233 31.4768 57.8928C31.6914 57.2534 31.6629 56.6757 31.3914 56.1597C31.1169 55.6527 30.5978 55.271 29.8341 55.0147L25.7979 53.6603L26.2046 52.4481L33.5045 54.8976L33.0977 56.1099L32.0587 55.7612C32.3512 56.1261 32.5311 56.5471 32.5983 57.0242C32.6624 57.5101 32.6111 58.0017 32.4442 58.499Z" fill="white"/>
<path d="M26.2867 72.0593C26.0442 72.037 25.7889 71.9994 25.521 71.9466L26.0841 65.8181C25.3242 65.7953 24.7083 65.9974 24.2364 66.4244C23.7729 66.8616 23.5103 67.416 23.4486 68.0876C23.398 68.6379 23.482 69.1066 23.7004 69.4935C23.9273 69.8906 24.2485 70.1835 24.6638 70.3722L24.5379 71.7434C23.8198 71.4705 23.2558 71.0048 22.846 70.3463C22.4455 69.6886 22.2872 68.9027 22.3712 67.9886C22.4381 67.261 22.6613 66.623 23.0409 66.0747C23.4197 65.5357 23.9225 65.1304 24.5495 64.8587C25.1858 64.588 25.9004 64.489 26.6933 64.5618C27.4862 64.6347 28.1666 64.8571 28.7344 65.2291C29.3023 65.6011 29.7186 66.0862 29.9835 66.6843C30.2569 67.2927 30.3593 67.9699 30.2907 68.7162C30.2239 69.4438 30.0061 70.0728 29.6376 70.6034C29.269 71.1339 28.7912 71.5227 28.2041 71.7698C27.6254 72.0271 26.9863 72.1236 26.2867 72.0593ZM26.6734 70.7685C27.1584 70.813 27.5834 70.7439 27.9482 70.5611C28.3224 70.3791 28.6153 70.1097 28.8268 69.7528C29.0468 69.4062 29.1773 69.009 29.2185 68.5612C29.2776 67.9176 29.1229 67.3484 28.7545 66.8536C28.3852 66.3682 27.8398 66.0594 27.1182 65.9272L26.6734 70.7685Z" fill="white"/>
<path d="M31.4904 86.2384L23.4989 85.1436L23.2803 83.841L29.001 81L22.6662 80.1827L22.4475 78.8802L29.6411 75.222L29.8574 76.5107L23.7763 79.3267L30.4669 80.1413L30.6832 81.43L24.6045 84.3453L31.281 84.9912L31.4904 86.2384Z" fill="white"/>
<path d="M36.189 103.276C35.9834 103.407 35.7585 103.533 35.5141 103.655L32.2132 98.4608C31.5979 98.9073 31.2341 99.4438 31.1216 100.07C31.0221 100.699 31.1532 101.299 31.515 101.868C31.8114 102.334 32.1643 102.654 32.5737 102.827C32.9961 103.002 33.4293 103.038 33.8733 102.933L34.6119 104.095C33.8768 104.318 33.1458 104.294 32.4189 104.024C31.6999 103.748 31.0942 103.223 30.6018 102.448C30.2099 101.832 29.9966 101.19 29.9618 100.524C29.932 99.8661 30.0822 99.238 30.4123 98.6397C30.7504 98.0364 31.2554 97.5212 31.9274 97.0942C32.5994 96.6671 33.2738 96.4272 33.9506 96.3745C34.6274 96.3217 35.2534 96.4511 35.8287 96.7625C36.4169 97.0768 36.912 97.5502 37.3139 98.1827C37.7058 98.7993 37.9181 99.4302 37.9507 100.075C37.9834 100.721 37.8429 101.32 37.5294 101.875C37.2287 102.432 36.7819 102.899 36.189 103.276ZM35.7059 102.018C36.117 101.757 36.411 101.442 36.588 101.075C36.7728 100.702 36.8399 100.31 36.7891 99.898C36.7513 99.4892 36.6118 99.095 36.3706 98.7155C36.024 98.17 35.5536 97.8141 34.9596 97.6478C34.3705 97.4894 33.7501 97.5784 33.0983 97.915L35.7059 102.018Z" fill="white"/>
<path d="M41.8747 106.302C42.3478 106.159 42.815 106.151 43.2763 106.279C43.7441 106.414 44.1857 106.698 44.6014 107.13L43.6495 108.046L43.4157 107.803C42.4221 106.77 41.365 106.792 40.2444 107.87L37.2268 110.773L36.3403 109.852L41.8895 104.514L42.7759 105.435L41.8747 106.302Z" fill="white"/>
<path d="M44.7689 112.738C45.2122 112.088 45.7316 111.609 46.3272 111.301C46.9281 110.985 47.5491 110.847 48.1905 110.887C48.8395 110.933 49.4466 111.149 50.0115 111.534C50.5688 111.914 50.9707 112.364 51.2173 112.883C51.4639 113.403 51.5638 113.913 51.517 114.414L52.3086 113.253L53.3766 113.981L49.0389 120.343L47.9709 119.615L48.7783 118.431C48.316 118.66 47.7915 118.756 47.2047 118.718C46.6309 118.679 46.0693 118.471 45.5198 118.097C44.9548 117.712 44.539 117.224 44.2723 116.634C44.0057 116.044 43.9123 115.408 43.9921 114.725C44.072 114.043 44.3309 113.38 44.7689 112.738ZM50.1477 116.422C50.4748 115.943 50.663 115.459 50.7123 114.971C50.7616 114.483 50.6831 114.033 50.477 113.62C50.2838 113.205 49.9899 112.863 49.5952 112.594C49.2005 112.324 48.7773 112.172 48.3256 112.136C47.8738 112.1 47.4299 112.194 46.9937 112.418C46.5574 112.642 46.1757 112.994 45.8486 113.474C45.5161 113.962 45.3226 114.453 45.2681 114.949C45.2188 115.437 45.2908 115.889 45.4839 116.304C45.6823 116.711 45.9789 117.049 46.3736 117.318C46.7683 117.588 47.1915 117.74 47.6432 117.776C48.1079 117.809 48.5584 117.714 48.9946 117.49C49.4361 117.258 49.8205 116.902 50.1477 116.422Z" fill="white"/>
<path d="M64.9898 126.683C64.2856 126.527 63.6808 126.225 63.1755 125.777C62.6794 125.332 62.3315 124.78 62.1319 124.121C61.9435 123.456 61.9354 122.735 62.1076 121.957C62.2777 121.189 62.5922 120.549 63.0511 120.036C63.5212 119.517 64.0787 119.165 64.7238 118.982C65.3708 118.79 66.0511 118.772 66.7644 118.93C67.4778 119.088 68.0871 119.391 68.5924 119.839C69.0997 120.277 69.4531 120.826 69.6527 121.484C69.8615 122.144 69.8798 122.863 69.7076 123.641C69.5354 124.418 69.2097 125.065 68.7305 125.583C68.2625 126.093 67.7004 126.444 67.0441 126.634C66.3879 126.825 65.7031 126.841 64.9898 126.683ZM65.2328 125.585C65.681 125.685 66.125 125.673 66.5648 125.549C67.0047 125.426 67.3901 125.18 67.7211 124.812C68.0612 124.446 68.2981 123.962 68.4318 123.358C68.5655 122.754 68.56 122.216 68.4154 121.743C68.2708 121.269 68.0287 120.889 67.6892 120.603C67.3516 120.308 66.9588 120.11 66.5107 120.011C66.0534 119.91 65.6094 119.922 65.1787 120.047C64.7591 120.165 64.3885 120.409 64.0666 120.779C63.7448 121.149 63.5171 121.636 63.3834 122.24C63.2477 122.853 63.243 123.394 63.3693 123.863C63.5047 124.334 63.7366 124.717 64.065 125.01C64.3954 125.294 64.7847 125.486 65.2328 125.585Z" fill="white"/>
<path d="M77.5522 121.264L75.9368 121.224L75.7739 127.868L74.4957 127.837L74.6586 121.193L73.6613 121.168L73.6871 120.115L74.6844 120.139L74.6978 119.592C74.719 118.73 74.9544 118.108 75.4042 117.725C75.8636 117.334 76.5849 117.15 77.5681 117.174L77.542 118.242C76.9801 118.228 76.5794 118.331 76.3397 118.55C76.1097 118.759 75.9885 119.117 75.9761 119.623L75.9627 120.171L77.578 120.21L77.5522 121.264Z" fill="white"/>
<path d="M92.7657 124.321L93.0908 117.385L94.3911 116.976L93.8165 125.228L92.3955 125.674L87.2059 119.233L88.5196 118.821L92.7657 124.321Z" fill="white"/>
<path d="M98.0351 113.798C97.8189 113.91 97.5971 113.93 97.3698 113.858C97.1425 113.786 96.9728 113.641 96.8607 113.425C96.7485 113.209 96.7285 112.987 96.8005 112.76C96.8726 112.533 97.0167 112.363 97.2329 112.251C97.4408 112.143 97.6542 112.127 97.8732 112.204C98.1005 112.276 98.2702 112.42 98.3824 112.636C98.4945 112.852 98.5145 113.074 98.4425 113.301C98.3788 113.524 98.243 113.69 98.0351 113.798ZM99.1597 114.623L102.705 121.458L101.57 122.047L98.0246 115.212L99.1597 114.623Z" fill="white"/>
<path d="M104.923 112.52C104.847 112.032 104.904 111.568 105.095 111.129C105.294 110.685 105.636 110.287 106.122 109.935L106.896 111.005L106.623 111.202C105.462 112.043 105.338 113.093 106.25 114.353L108.706 117.744L107.67 118.494L103.154 112.257L104.19 111.507L104.923 112.52Z" fill="white"/>
<path d="M111.157 106.966L114.395 110.146C114.662 110.409 114.908 110.539 115.134 110.537C115.352 110.529 115.599 110.384 115.875 110.103L116.535 109.432L117.307 110.19L116.499 111.012C116 111.52 115.509 111.786 115.026 111.81C114.543 111.834 114.034 111.584 113.499 111.059L110.261 107.879L109.562 108.59L108.81 107.852L109.509 107.14L108.126 105.782L109.022 104.869L110.405 106.228L111.813 104.794L112.565 105.533L111.157 106.966Z" fill="white"/>
<path d="M118.219 95.9859L124.675 100.183L123.978 101.255L123.024 100.634C123.221 101.053 123.294 101.508 123.242 102C123.188 102.479 123.018 102.938 122.732 103.378C122.405 103.88 122.009 104.265 121.545 104.533C121.072 104.796 120.552 104.91 119.982 104.875C119.418 104.832 118.837 104.616 118.24 104.228L114.459 101.77L115.148 100.71L118.788 103.076C119.424 103.49 120.02 103.648 120.575 103.551C121.122 103.448 121.577 103.118 121.939 102.561C122.312 101.987 122.429 101.421 122.29 100.861C122.151 100.302 121.744 99.8022 121.068 99.3631L117.522 97.0579L118.219 95.9859Z" fill="white"/>
<path d="M123.514 94.0835C122.771 93.8226 122.175 93.4442 121.723 92.9481C121.263 92.4489 120.97 91.8842 120.844 91.2541C120.721 90.6152 120.773 89.9731 121 89.328C121.223 88.6917 121.554 88.1874 121.993 87.8153C122.431 87.4432 122.899 87.2152 123.395 87.1313L122.069 86.6656L122.498 85.446L129.762 87.9983L129.334 89.2179L127.981 88.7429C128.322 89.1305 128.55 89.6127 128.665 90.1893C128.774 90.7539 128.719 91.35 128.498 91.9775C128.271 92.6226 127.907 93.15 127.406 93.5596C126.905 93.9693 126.314 94.2234 125.634 94.3221C124.954 94.4207 124.247 94.3412 123.514 94.0835ZM125.688 87.9371C125.14 87.7446 124.624 87.6874 124.14 87.7655C123.656 87.8436 123.241 88.0354 122.895 88.3409C122.544 88.6345 122.289 89.0066 122.131 89.4573C121.972 89.908 121.934 90.3563 122.016 90.802C122.097 91.2477 122.303 91.6524 122.632 92.0162C122.961 92.38 123.399 92.6581 123.947 92.8506C124.504 93.0462 125.029 93.1065 125.522 93.0315C126.006 92.9534 126.423 92.7676 126.775 92.474C127.117 92.1774 127.368 91.8037 127.526 91.353C127.684 90.9022 127.723 90.454 127.641 90.0083C127.554 89.5507 127.346 89.14 127.017 88.7762C126.679 88.4093 126.236 88.1296 125.688 87.9371Z" fill="white"/>
<path d="M120.883 79.2247L131.163 80.7874L130.971 82.0515L120.691 80.4888L120.883 79.2247Z" fill="white"/>
<path d="M124.394 65.0512L124.608 66.6528L131.195 65.7724L131.365 67.0397L124.777 67.9201L124.909 68.909L123.865 69.0486L123.733 68.0597L123.19 68.1323C122.335 68.2465 121.684 68.1114 121.236 67.7272C120.777 67.3349 120.482 66.6513 120.352 65.6764L121.411 65.5349C121.485 66.092 121.649 66.4717 121.903 66.674C122.146 66.8683 122.519 66.932 123.02 66.865L123.563 66.7924L123.349 65.1908L124.394 65.0512Z" fill="white"/>
<path d="M126.438 60.6294C125.694 60.8864 124.991 60.9608 124.329 60.8526C123.659 60.7474 123.078 60.4872 122.588 60.0719C122.094 59.6478 121.736 59.1126 121.512 58.4663C121.292 57.8289 121.238 57.2281 121.35 56.664C121.463 56.0999 121.687 55.6309 122.024 55.2569L120.696 55.7158L120.273 54.4941L127.551 51.9789L127.973 53.2006L126.619 53.6688C127.126 53.761 127.604 53.9971 128.053 54.3773C128.489 54.7517 128.816 55.2532 129.034 55.8818C129.257 56.5281 129.3 57.1675 129.161 57.8C129.023 58.4325 128.718 58.9987 128.247 59.4986C127.775 59.9985 127.172 60.3754 126.438 60.6294ZM124.321 54.4628C123.772 54.6525 123.332 54.9284 123.002 55.2905C122.671 55.6526 122.465 56.0607 122.384 56.5149C122.291 56.9632 122.323 57.4131 122.479 57.8647C122.635 58.3162 122.884 58.6912 123.225 58.9896C123.566 59.288 123.978 59.4775 124.462 59.558C124.945 59.6386 125.462 59.5841 126.011 59.3944C126.568 59.2016 127.017 58.9226 127.357 58.5575C127.687 58.1954 127.899 57.7902 127.992 57.3418C128.076 56.8965 128.04 56.4481 127.884 55.9966C127.728 55.5451 127.479 55.1701 127.138 54.8717C126.785 54.5675 126.367 54.3751 125.883 54.2945C125.391 54.217 124.87 54.2731 124.321 54.4628Z" fill="white"/>
<path d="M123.52 44.1457C123.832 44.6461 124.029 45.1471 124.111 45.6485C124.184 46.1549 124.142 46.6176 123.984 47.0366C123.818 47.4606 123.544 47.8086 123.162 48.0806L122.462 46.9605C122.768 46.7252 122.939 46.408 122.977 46.0088C123.01 45.6017 122.888 45.1757 122.61 44.7309C122.351 44.3178 122.057 44.0491 121.725 43.925C121.393 43.8008 121.089 43.8256 120.81 43.9993C120.524 44.178 120.393 44.4366 120.417 44.7752C120.433 45.1188 120.54 45.5989 120.737 46.2155C120.913 46.7795 121.034 47.2562 121.1 47.6454C121.154 48.0316 121.123 48.4154 121.008 48.7967C120.88 49.175 120.605 49.4956 120.184 49.7587C119.85 49.9672 119.483 50.059 119.08 50.0341C118.678 50.0092 118.284 49.8637 117.896 49.5975C117.501 49.3363 117.157 48.9714 116.864 48.5027C116.413 47.7798 116.231 47.0817 116.318 46.4085C116.406 45.7353 116.757 45.1843 117.373 44.7554L118.05 45.8398C117.724 46.0771 117.536 46.3873 117.489 46.7706C117.436 47.1459 117.541 47.5441 117.804 47.9651C118.048 48.3544 118.325 48.6121 118.635 48.7383C118.946 48.8644 119.236 48.8431 119.507 48.6743C119.721 48.5403 119.858 48.3611 119.916 48.1367C119.962 47.9093 119.964 47.6651 119.922 47.4039C119.868 47.1398 119.775 46.7888 119.645 46.3509C119.48 45.8028 119.369 45.342 119.312 44.9687C119.248 44.6003 119.274 44.2359 119.391 43.8755C119.503 43.5071 119.756 43.1949 120.148 42.9388C120.505 42.7154 120.889 42.6137 121.299 42.6336C121.709 42.6535 122.112 42.7941 122.507 43.0553C122.889 43.3135 123.227 43.677 123.52 44.1457Z" fill="white"/>
<path d="M110.141 40.0269C109.734 39.6131 109.456 39.1506 109.307 38.6394C109.152 38.1348 109.16 37.6149 109.329 37.0796C109.492 36.5377 109.828 36.017 110.335 35.5175L113.569 32.3331L114.456 33.2342L111.352 36.2904C110.805 36.8293 110.523 37.377 110.505 37.9332C110.481 38.4961 110.702 39.0144 111.169 39.4883C111.642 39.9689 112.17 40.2048 112.753 40.196C113.329 40.1806 113.905 39.8902 114.479 39.325L117.512 36.3378L118.409 37.2489L111.001 44.5443L110.103 43.6333L112.807 40.9714C112.349 41.0673 111.889 41.0339 111.426 40.8714C110.957 40.7022 110.529 40.4207 110.141 40.0269Z" fill="white"/>
<path d="M103.301 35.7195C103.5 35.8595 103.62 36.047 103.661 36.2819C103.702 36.5168 103.653 36.7338 103.513 36.9331C103.373 37.1324 103.185 37.2525 102.95 37.2935C102.715 37.3345 102.498 37.285 102.299 37.145C102.107 37.0104 101.995 36.8283 101.961 36.5988C101.92 36.3639 101.97 36.1468 102.11 35.9475C102.25 35.7483 102.438 35.6281 102.672 35.5871C102.9 35.5407 103.109 35.5848 103.301 35.7195ZM103.514 34.3408L107.941 28.0408L108.987 28.776L104.56 35.076L103.514 34.3408Z" fill="white"/>
<path d="M100.053 23.4042C100.708 23.7061 101.235 24.1295 101.633 24.6743C102.023 25.2152 102.246 25.8285 102.301 26.5141C102.344 27.2043 102.199 27.9109 101.866 28.634C101.536 29.3486 101.093 29.9075 100.536 30.3108C99.9659 30.7186 99.3464 30.9436 98.6772 30.9857C98.004 31.0364 97.3356 30.9088 96.6721 30.6029C96.0086 30.297 95.4775 29.8716 95.0788 29.3268C94.6762 28.7905 94.4473 28.1795 94.392 27.4939C94.3283 26.8044 94.4631 26.0981 94.7964 25.375C95.1298 24.6519 95.5856 24.0884 96.1637 23.6845C96.7295 23.2852 97.3532 23.0622 98.0349 23.0154C98.7166 22.9687 99.3892 23.0982 100.053 23.4042ZM99.5821 24.425C99.1653 24.2328 98.7289 24.1502 98.2729 24.1772C97.8169 24.2043 97.3881 24.3624 96.9865 24.6518C96.5764 24.9372 96.242 25.3606 95.9831 25.9221C95.7243 26.4835 95.6153 27.0109 95.656 27.5042C95.6968 27.9975 95.8527 28.42 96.1237 28.7719C96.3908 29.1323 96.7328 29.4085 97.1496 29.6007C97.5749 29.7968 98.0113 29.8794 98.4588 29.8484C98.8939 29.8221 99.3079 29.6623 99.701 29.369C100.094 29.0757 100.42 28.6484 100.679 28.0869C100.942 27.517 101.061 26.9893 101.037 26.5038C101.005 26.0145 100.86 25.5916 100.601 25.2351C100.339 24.8872 99.999 24.6171 99.5821 24.425Z" fill="white"/>
<path d="M86.0199 27.1601C85.1018 26.9742 84.4149 26.5435 83.9591 25.8682C83.5014 25.2021 83.3786 24.3457 83.5906 23.2991L84.4915 18.8509L85.7309 19.102L84.8663 23.3711C84.7138 24.1239 84.7858 24.7358 85.0822 25.2068C85.3768 25.687 85.85 25.9932 86.5019 26.1252C87.1629 26.2591 87.7326 26.1594 88.2111 25.8262C88.6804 25.4912 88.995 24.9289 89.1549 24.1393L90 19.9666L91.2532 20.2205L89.7247 27.7671L88.4715 27.5133L88.6891 26.4392C88.3631 26.7745 87.9676 27.005 87.5025 27.1307C87.0282 27.2544 86.534 27.2642 86.0199 27.1601Z" fill="white"/>
</svg>
