<svg width="100%" height="100%" viewBox="0 0 102 33" fill="none" xmlns="http://www.w3.org/2000/svg">
<path d="M0 1.00244V28.2688L9.25183 25.8292H6.28504L6.28796 18.7681L12.0927 18.771V12.978H6.27625L6.28796 6.96239L12.3328 6.97411V1.02001L0 1.00244Z" fill="white"/>
<path d="M11.5542 26.4146L1.18945 29.15V32.4155H13.9147V26.4146H11.5542Z" fill="white"/>
<path d="M24.1004 1.02001C24.6774 1.01708 25.3539 1.09323 25.3539 1.09323C27.0028 1.29531 28.1421 2.11243 28.8069 3.38642C29.4717 4.66041 29.583 6.02813 29.6738 6.6988C29.7646 7.36948 29.8085 8.39453 29.8261 9.41959C29.8437 10.4446 29.7031 11.745 29.7031 11.745C29.7031 11.745 29.5859 12.5211 29.3663 13.1859C29.1466 13.8507 28.9826 14.167 28.517 14.7001C28.0542 15.2302 27.3601 15.5348 27.1902 15.6109C27.0204 15.69 26.7832 15.7603 26.7832 15.7603C27.0145 15.7808 27.4802 15.9799 27.4802 15.9799C28.0659 16.2611 28.5111 16.5481 28.9153 17.4209C29.3194 18.2936 29.378 19.3362 29.3839 19.5237C29.3926 19.7111 29.4014 20.496 29.4014 20.496L23.3273 22.1039V19.6086C23.3273 19.6086 23.3097 19.2015 23.254 18.9291C23.1984 18.6568 23.1193 18.3639 22.8792 18.1735C22.639 17.9832 22.3286 17.9158 22.0035 17.8484C21.6784 17.7782 20.9989 17.7635 20.9989 17.7635V22.7189L14.7988 24.359V1.00244C14.8047 1.00244 23.5235 1.02294 24.1004 1.02001ZM21.0429 6.71931V12.442H22.6302C22.6302 12.442 23.8515 12.442 23.8134 9.8794C23.7754 7.31676 23.5938 6.79838 22.5307 6.71931H21.0429Z" fill="white"/>
<path d="M15.9287 25.2612V32.416L22.1757 32.419V23.6123L15.9287 25.2612Z" fill="white"/>
<path d="M24.498 23V32.4187H30.5722V21.3979L24.498 23Z" fill="white"/>
<path d="M37.7187 18.2964L31.6094 19.9131V11.3319V9.18519C31.6094 9.18519 31.7558 7.36646 31.9022 6.68407C32.0487 6.00168 32.1336 5.23142 33.1587 3.43904C34.1837 1.64667 36.4535 1.09607 36.4535 1.09607C36.4535 1.09607 37.8446 0.718262 39.5052 0.718262C41.1658 0.718262 42.5481 1.30401 42.5481 1.30401C42.5481 1.30401 43.6874 1.76089 44.5338 2.47549C45.3802 3.1901 45.9338 4.18294 46.0948 4.57539C46.2588 4.96491 46.7128 5.9431 46.7304 7.5539C46.7479 9.16469 46.7304 13.3293 46.7304 13.3293L40.6123 13.2971L40.5947 8.66095C40.5947 8.66095 40.6181 8.02542 40.5215 7.6359C40.4248 7.24638 40.293 6.4322 39.3178 6.40877C38.3425 6.38534 37.9588 6.88908 37.8124 7.6359C37.8124 7.6359 37.7158 8.23922 37.7216 8.53209C37.7304 8.81618 37.7187 18.2964 37.7187 18.2964Z" fill="white"/>
<path d="M38.9044 19.1924L32.7863 20.812L32.7833 24.8126C32.7833 24.8126 32.7394 28.1133 34.236 29.8968C35.7326 31.6775 37.2028 32.6996 40.4712 32.6996C43.7426 32.6996 45.9509 31.4901 47.0491 29.4165C48.1474 27.343 47.9775 24.3586 47.9775 24.3586L47.9863 19.1924L41.7833 19.1484L41.7804 24.1683C41.7804 24.1683 41.8507 25.6736 41.4904 26.3326C41.1331 26.9916 40.6645 27.0413 40.2281 27.0326C39.7918 27.0238 39.3817 26.7221 39.2119 26.4263C39.042 26.1305 38.9395 25.577 38.9219 25.3983C38.9044 25.2197 38.8897 24.8829 38.8927 24.6866C38.8956 24.4904 38.9014 19.5292 38.9014 19.5292L38.9044 19.1924Z" fill="white"/>
<path d="M64.2654 1.00244H48.7197V6.71052H57.4239L55.5056 11.3467L54.504 13.8537L62.2563 11.8036L62.9299 10.1664C62.9299 10.1664 63.4981 8.58783 63.5478 8.45897C63.5976 8.3301 63.8641 7.42513 63.8964 7.28748C63.9286 7.14983 64.116 6.33564 64.1717 5.81433C64.2273 5.29302 64.2654 4.73363 64.2654 4.73363V1.00244Z" fill="white"/>
<path d="M63.249 12.7759L55.5259 14.8143C55.5259 14.8143 53.098 20.6805 52.3922 24.4615C52.3922 24.4615 51.6366 27.6831 51.5253 29.1591C51.414 30.6352 51.1943 32.3925 51.1943 32.3925H58.1881C58.1881 32.3925 58.3463 29.4139 58.7036 27.4634C59.0609 25.51 59.8253 22.1419 60.2822 20.7274C60.739 19.3128 61.3892 17.4091 61.3892 17.4091L62.836 13.7306L63.249 12.7759Z" fill="white"/>
<path d="M72.5388 9.08565L65.9023 10.84V9.29359C65.9023 9.29359 65.9492 7.58615 66.2655 6.4498C66.5818 5.31346 66.9625 4.20348 67.7416 3.28971C68.5235 2.37302 69.1708 1.8605 70.5473 1.2894C71.9267 0.715368 74.4044 0.653865 75.3065 0.788586C76.2085 0.923307 76.8206 0.98481 77.3683 1.20446C77.916 1.42412 78.9791 1.85171 79.8577 2.66883C80.7363 3.48594 81.4568 5.07331 81.4568 5.07331C81.4568 5.07331 81.8522 6.23601 81.9137 6.60503L75.5466 8.28904C75.5466 8.28904 75.4822 7.58029 75.3475 7.21127C75.2127 6.84225 75.0136 6.62846 74.6651 6.48788C74.3166 6.3473 73.6752 6.4498 73.6752 6.4498C73.6752 6.4498 73.1392 6.50545 72.8639 7.0004C72.5886 7.49536 72.5388 9.08565 72.5388 9.08565Z" fill="white"/>
<path d="M73.7273 10.0109L67.0879 11.7623V25.2344C67.0879 25.2344 67.4569 29.3522 69.671 30.9278C71.8851 32.5064 72.8106 32.5211 74.8285 32.7173C74.8285 32.7173 76.8698 32.7583 78.3459 32.2575C79.822 31.7567 80.4926 31.2822 81.1897 30.5852C81.8867 29.8881 82.4959 29.0095 82.9118 27.7062C83.3277 26.403 83.3892 24.8273 83.3892 24.8273V10.0109C83.3892 10.0109 83.3599 8.79255 83.272 8.18338C83.1871 7.5742 83.1578 7.52441 83.1578 7.52441L76.7615 9.21136V24.1566C76.7615 24.1566 76.9928 27.0356 75.3205 27.0502C73.6482 27.0619 73.7097 24.7804 73.7097 24.7804L73.7332 16.9813L73.7273 10.0109Z" fill="white"/>
<path d="M84.0713 6.03423L97.394 2.51097C97.394 2.51097 96.4744 1.63822 94.8929 1.15498C93.3114 0.671738 91.1149 0.610235 89.4719 0.952895C87.8288 1.29556 86.5226 2.03359 85.4741 3.26658C84.4227 4.49665 84.0713 6.03423 84.0713 6.03423Z" fill="white"/>
<path d="M93.092 6.99441C93.2033 7.00027 93.4991 7.05299 93.4991 7.05299C94.0936 7.22285 94.199 7.62116 94.3279 8.20105C94.4568 8.78093 94.5007 9.66541 94.5007 9.66541V20.1239C94.5007 20.1239 94.4831 24.7161 94.4978 25.091C94.5153 25.4659 94.4333 27.0913 92.8225 27.0269C91.2117 26.9624 91.449 24.0484 91.449 24.0484L91.4577 13.3087C91.4577 13.3087 91.408 9.71227 91.5544 8.32991C91.7008 6.94755 92.8225 6.99441 92.8225 6.99441C92.8225 6.99441 92.9807 6.98856 93.092 6.99441ZM98.8381 3.3833L85.202 6.9827C85.202 6.9827 84.9121 7.77931 84.8388 9.20853C84.7656 10.6377 84.7539 12.9661 84.7539 12.9661L84.8154 24.5111C84.8154 24.5111 84.8388 27.8059 85.9986 29.3435C87.1584 30.8811 88.16 32.076 91.2205 32.5651C94.284 33.0542 96.8085 32.2634 98.0298 31.3204C99.2511 30.3773 99.9833 29.5134 100.584 27.8557C101.187 26.1951 101.12 24.6019 101.12 24.6019L101.123 9.23489C101.123 9.23489 100.812 6.54339 100.259 5.48319C99.705 4.42593 99.5586 4.18284 99.3624 3.93683C99.1691 3.69082 98.8381 3.3833 98.8381 3.3833Z" fill="white"/>
</svg>
