<svg width="20" height="18" viewBox="0 0 20 18" fill="none" xmlns="http://www.w3.org/2000/svg">
<g clip-path="url(#clip0_268_496)">
<path d="M17.837 4.8736C17.8488 5.05493 17.8488 5.23625 17.8488 5.41925C17.8488 10.9953 13.8601 17.4261 6.56644 17.4261V17.4228C4.41187 17.4261 2.30207 16.7693 0.488281 15.5309C0.801572 15.571 1.11643 15.5911 1.43208 15.5919C3.2176 15.5936 4.95209 14.956 6.35679 13.782C4.65999 13.7478 3.17206 12.5704 2.65226 10.8515C3.24665 10.9735 3.8591 10.9485 4.4425 10.7788C2.59259 10.3811 1.26169 8.65138 1.26169 6.64258C1.26169 6.6242 1.26169 6.60665 1.26169 6.5891C1.8129 6.91583 2.43006 7.09715 3.06135 7.11721C1.31901 5.878 0.781942 3.41129 1.8341 1.4827C3.84732 4.11905 6.8177 5.72174 10.0064 5.89137C9.68678 4.42571 10.1233 2.88987 11.1535 1.85956C12.7506 0.261882 15.2624 0.343771 16.7637 2.04256C17.6517 1.85622 18.5029 1.50944 19.2818 1.01811C18.9858 1.99493 18.3663 2.82469 17.5387 3.35196C18.3247 3.25336 19.0926 3.02941 19.8157 2.68765C19.2834 3.53663 18.6128 4.27614 17.837 4.8736Z" fill="white"/>
</g>
<defs>
<clipPath id="clip0_268_496">
<rect width="19.3274" height="16.713" fill="white" transform="translate(0.488281 0.713379)"/>
</clipPath>
</defs>
</svg>
